<svg width="16" height="16" viewBox="0 0 16 16" fill="none" xmlns="http://www.w3.org/2000/svg">
<path fill-rule="evenodd" clip-rule="evenodd" d="M6.66683 2.00002C6.49002 2.00002 6.32045 2.07026 6.19543 2.19528C6.0704 2.32031 6.00016 2.48988 6.00016 2.66669V3.33335H10.0002V2.66669C10.0002 2.48988 9.92992 2.32031 9.8049 2.19528C9.67988 2.07026 9.51031 2.00002 9.3335 2.00002H6.66683ZM11.3335 3.33335V2.66669C11.3335 2.13625 11.1228 1.62755 10.7477 1.25247C10.3726 0.877401 9.86393 0.666687 9.3335 0.666687H6.66683C6.1364 0.666687 5.62769 0.877401 5.25262 1.25247C4.87754 1.62755 4.66683 2.13625 4.66683 2.66669V3.33335H2.00016C1.63197 3.33335 1.3335 3.63183 1.3335 4.00002C1.3335 4.36821 1.63197 4.66669 2.00016 4.66669H2.66683V13.3334C2.66683 13.8638 2.87754 14.3725 3.25262 14.7476C3.62769 15.1226 4.1364 15.3334 4.66683 15.3334H11.3335C11.8639 15.3334 12.3726 15.1226 12.7477 14.7476C13.1228 14.3725 13.3335 13.8638 13.3335 13.3334V4.66669H14.0002C14.3684 4.66669 14.6668 4.36821 14.6668 4.00002C14.6668 3.63183 14.3684 3.33335 14.0002 3.33335H11.3335ZM4.00016 4.66669V13.3334C4.00016 13.5102 4.0704 13.6797 4.19543 13.8048C4.32045 13.9298 4.49002 14 4.66683 14H11.3335C11.5103 14 11.6799 13.9298 11.8049 13.8048C11.9299 13.6797 12.0002 13.5102 12.0002 13.3334V4.66669H4.00016Z" fill="#F64669"/>
</svg>
