<svg width="20" height="20" viewBox="0 0 20 20" fill="none" xmlns="http://www.w3.org/2000/svg"> <path fill-rule="evenodd" clip-rule="evenodd" d="M9.11893 1.01964C9.70333 0.933485 10.3355 1.13175 10.7991 1.59539L18.4047 9.21408C19.1659 9.97529 19.2036 11.1832 18.4804 11.9063L11.9063 18.4804C11.1832 19.2036 9.97529 19.1659 9.21408 18.4047L1.59539 10.7991C1.13175 10.3355 0.933485 9.70333 1.01964 9.11893L2.00663 2.31125C2.0295 2.15345 2.15345 2.0295 2.31125 2.00663L9.11893 1.01964Z" stroke="black" stroke-width="2" stroke-linecap="round" stroke-linejoin="round"/> <path fill-rule="evenodd" clip-rule="evenodd" d="M5.73009 9.26991C6.70354 10.2434 8.29646 10.2434 9.26991 9.26991C10.2434 8.29646 10.2434 6.70354 9.26991 5.73009C8.29646 4.75664 6.70354 4.75664 5.73009 5.73009C4.75664 6.70354 4.75664 8.29646 5.73009 9.26991Z" stroke="black" stroke-width="2" stroke-linecap="round" stroke-linejoin="round"/> </svg>