<svg width="24" height="24" viewBox="0 0 24 24" fill="none" xmlns="http://www.w3.org/2000/svg">
<path d="M24 1.00012L13.053 12.0001L24 23.0001L3 23.0001C2.20435 23.0001 1.44129 22.6841 0.87868 22.1214C0.31607 21.5588 -9.63552e-08 20.7958 -1.31134e-07 20.0001L-8.30516e-07 4.00012C-8.65295e-07 3.20447 0.31607 2.44141 0.878679 1.8788C1.44129 1.31619 2.20435 1.00012 3 1.00012L24 1.00012ZM10.232 12.0001L19.185 3.00012L3 3.00012C2.73478 3.00012 2.48043 3.10548 2.29289 3.29301C2.10536 3.48055 2 3.73491 2 4.00012L2 20.0001C2 20.2653 2.10536 20.5197 2.29289 20.7072C2.48043 20.8948 2.73478 21.0001 3 21.0001L19.185 21.0001L10.232 12.0001Z" fill="#374957"/>
</svg>
